<?xml version="1.0" encoding="UTF-8" standalone="no" ?>
<!DOCTYPE svg PUBLIC "-//W3C//DTD SVG 1.1//EN" "http://www.w3.org/Graphics/SVG/1.1/DTD/svg11.dtd">
<svg xmlns="http://www.w3.org/2000/svg" xmlns:xlink="http://www.w3.org/1999/xlink" version="1.1" width="1280" height="1024" viewBox="0 0 1280 1024" xml:space="preserve">
<desc>Created with Fabric.js 5.3.0</desc>
<defs>
</defs>
<g transform="matrix(1 0 0 1 640 512)" id="background-logo"  >
<rect style="stroke: none; stroke-width: 0; stroke-dasharray: none; stroke-linecap: butt; stroke-dashoffset: 0; stroke-linejoin: miter; stroke-miterlimit: 4; fill: rgb(255,255,255); fill-opacity: 0; fill-rule: nonzero; opacity: 1;"  paint-order="stroke"  x="-640" y="-512" rx="0" ry="0" width="1280" height="1024" />
</g>
<g transform="matrix(3.5129892032228347 0 0 3.5129892032228343 639.4086557975917 511.9324178054391)" id="logo-logo"  >
<g style=""  paint-order="stroke"   >
		<g transform="matrix(0.1424166814959731 0 0 0.1424166814959731 1.421085e-14 0)"  >
<path style="stroke: none; stroke-width: 1; stroke-dasharray: none; stroke-linecap: butt; stroke-dashoffset: 0; stroke-linejoin: miter; stroke-miterlimit: 4; fill: rgb(236,244,244); fill-rule: nonzero; opacity: 1;"  paint-order="stroke"  transform=" translate(-1023.9328895577296, -1023.71)" d="M 1023.14 63.9 C 1024.21 63.93 1024.21 63.93 1025.27 64.08 L 1026.37 64.31 L 1027.6299999999999 64.58 C 1029.1299999999999 64.96 1030.55 65.44 1031.9999999999998 66 C 1037.1699999999998 68.45 1042.0599999999997 71.44 1046.9599999999998 74.38 Q 1049.4199999999998 75.85 1051.8899999999999 77.28 L 1057.9599999999998 80.86 C 1064.9399035288397 84.97348385955021 1071.9433521471392 89.04688424582403 1078.97 93.0799999999998 Q 1092.85 101.08 1106.7699999999998 109.00999999999999 C 1120.0758802363196 116.59912050201106 1133.3526442870984 124.2391765412731 1146.599999999997 131.92999999999734 L 1159.4899999999998 139.37 C 1167.4279750319818 143.95673509420467 1175.3813533436173 148.5167608822678 1183.3499999999979 153.0499999999994 C 1193.6222827974975 158.9038877265691 1203.8624362944784 164.8139763171125 1214.0699999999993 170.78000000000048 Q 1224.9499999999998 177.15 1235.8699999999997 183.44 L 1237.5099999999998 184.38 L 1249 191 L 1262.13 198.56 L 1263.7600000000002 199.51 Q 1274.6000000000001 205.75 1285.4000000000003 212.07999999999998 Q 1300.4200000000003 220.85 1315.5400000000004 229.45 L 1319.9700000000005 231.98 L 1320.8500000000006 232.48 Q 1330.6600000000005 238.09 1340.4400000000005 243.75 Q 1351.9400000000005 250.41 1363.5000000000005 257 Q 1380.1200000000003 266.5 1396.6700000000005 276.08 L 1411.3800000000006 284.57 L 1419.5000000000005 289.25 L 1422.7500000000005 291.13 L 1455.2500000000005 309.88 L 1456.8800000000006 310.81 L 1460.1300000000006 312.69 L 1468.2500000000005 317.38 L 1490.8800000000006 330.44 L 1492.4800000000005 331.37 C 1500.4218688867297 335.9557719759324 1508.3785773304346 340.5157959185334 1516.35 345.04999999999984 C 1526.6222827974982 350.9038877265691 1536.8624362944797 356.8139763171129 1547.0700000000006 362.78000000000094 Q 1562.0500000000004 371.53000000000003 1577.0800000000004 380.17 L 1596.4900000000005 391.37 Q 1605.6900000000005 396.68 1614.9100000000005 401.94 L 1621.9400000000005 405.94 L 1622.8200000000006 406.44 C 1632.3245551837585 411.86606951643034 1641.7750206554542 417.3863414110081 1651.1700000000014 423.0000000000004 C 1660.082539321273 428.3026037575008 1669.049685613348 433.51288243947596 1678.070000000001 438.63000000000034 L 1679.8500000000006 439.63 Q 1691.4600000000005 446.26 1703.0000000000007 453 Q 1717.2300000000007 461.31 1731.5400000000006 469.45 L 1735.9700000000007 471.97999999999996 L 1736.8500000000008 472.47999999999996 Q 1746.6600000000008 478.09 1756.4400000000007 483.74999999999994 Q 1768.5800000000008 490.7699999999999 1780.7700000000007 497.71999999999997 C 1786.493969344856 500.98479080034195 1792.2073327399096 504.26814140951797 1797.9099999999999 507.5699999999994 L 1804.5300000000007 511.4 Q 1813.3700000000006 516.52 1822.2700000000007 521.53 L 1823.8000000000006 522.38 L 1825.3000000000006 523.22 C 1833.2893840880004 527.6072721699059 1841.1398735206128 532.2428627864441 1848.8400000000001 537.1199999999997 L 1850.3600000000006 538.1 L 1851.6300000000006 538.9300000000001 C 1853.5700000000006 540.44 1855.2600000000007 542.2600000000001 1857.0000000000005 544.0000000000001 L 1857.0000000000005 1503 L 1850.0000000000005 1510 C 1848.3398944259318 1511.1514932040416 1846.6024496877037 1512.1872775672161 1844.8000000000004 1513.1 L 1843.4000000000003 1513.85 L 1840.4200000000003 1515.3999999999999 Q 1837.2200000000003 1517.05 1834.0400000000002 1518.7399999999998 L 1830.7600000000002 1520.4699999999998 C 1825.6215647496067 1523.1990397258667 1820.534028571005 1526.02285567821 1815.5 1528.94 L 1814.2200000000003 1529.6799999999998 Q 1803.0500000000002 1536.09 1791.9400000000003 1542.6299999999999 Q 1779.5700000000004 1549.86 1767.1300000000003 1556.9299999999998 L 1760.0500000000004 1560.9699999999998 L 1759.1700000000003 1561.4699999999998 C 1745.225670123487 1569.400831025698 1731.3419342738414 1577.437730697605 1717.5199999999975 1585.5800000000008 C 1707.5200000000002 1591.4799999999998 1697.4500000000003 1597.2499999999998 1687.4000000000003 1603.0399999999997 L 1672.6200000000003 1611.5699999999997 L 1667.7500000000005 1614.3699999999997 L 1653.1800000000005 1622.7899999999997 L 1645.1300000000006 1627.4399999999998 L 1643.5100000000007 1628.37 C 1637.4035976141624 1631.8978567321574 1631.2869048605546 1635.407871701939 1625.1600000000008 1638.9 L 1623.4300000000007 1639.8899999999999 L 1622.5600000000009 1640.3899999999999 C 1611.1051595931056 1646.9054290403033 1599.6948941620922 1653.4989157544555 1588.3300000000013 1660.1699999999992 L 1580.1800000000007 1664.9599999999998 Q 1571.5100000000007 1670.0599999999997 1562.8100000000009 1675.1299999999999 L 1561.3500000000008 1675.9799999999998 Q 1542.3800000000008 1687.0199999999998 1523.3500000000008 1697.9499999999998 L 1513.510000000001 1703.62 L 1510.240000000001 1705.5 Q 1501.5500000000009 1710.5 1492.910000000001 1715.56 L 1491.410000000001 1716.44 L 1489.910000000001 1717.3200000000002 C 1480.308069729603 1722.9468050507503 1470.6441442883593 1728.4671432814155 1460.920000000001 1733.8799999999999 Q 1448.750000000001 1740.67 1436.720000000001 1747.74 Q 1424.400000000001 1754.94 1412.000000000001 1762 Q 1397.990000000001 1769.98 1384.0700000000008 1778.12 Q 1373.770000000001 1784.1599999999999 1363.3700000000008 1790.06 Q 1352.7900000000009 1796.09 1342.3100000000009 1802.31 C 1327.6100000000008 1811.03 1312.8100000000009 1819.55 1297.970000000001 1828.01 L 1297.0800000000008 1828.52 L 1289.980000000001 1832.57 Q 1277.450000000001 1839.71 1265.000000000001 1847 Q 1252.170000000001 1854.5 1239.250000000001 1861.88 L 1238.3700000000008 1862.38 L 1224.1000000000008 1870.5100000000002 L 1210.750000000001 1878.13 L 1209.8700000000008 1878.63 C 1200.5314803345727 1883.9638596482719 1191.2213490836482 1889.3472688749969 1181.9400000000028 1894.7799999999988 Q 1170.9900000000007 1901.1800000000003 1160.0000000000007 1907.5000000000002 Q 1148.0700000000006 1914.3700000000001 1136.2000000000007 1921.3000000000002 C 1125.3294621740904 1927.6491390742192 1114.4226162932835 1933.9359090409678 1103.4800000000007 1940.1599999999999 L 1088.1800000000007 1948.88 L 1087.2800000000007 1949.38 C 1077.6915997370647 1954.8458273101714 1068.1380730353794 1960.3726058417112 1058.6200000000006 1965.9599999999996 Q 1052.0800000000006 1969.74 1045.6100000000006 1973.66 Q 1042.7600000000007 1975.38 1039.9100000000005 1977.0600000000002 L 1037.2800000000004 1978.67 C 1034.9980298390199 1980.1419666269994 1032.6155021648626 1981.451855614755 1030.1500000000003 1982.5900000000001 C 1029.0000000000002 1983.0000000000002 1029.0000000000002 1983.0000000000002 1027.8300000000004 1983.2600000000002 C 1026.6500000000003 1983.4200000000003 1025.5300000000004 1983.5100000000002 1024.3400000000004 1983.5200000000002 C 1022.8816572539597 1983.4642447015829 1021.4302356256536 1983.2903416493434 1020.0000000000003 1983.0000000000002 C 1018.2000000000004 1982.4600000000003 1018.2000000000004 1982.4600000000003 1016.5000000000003 1981.7400000000002 Q 1014.7400000000004 1980.8400000000001 1013.0000000000003 1979.8800000000003 L 1010.9900000000004 1978.8200000000004 C 1009.0802014746694 1977.801393859988 1007.1801158590101 1976.764680480216 1005.2900000000003 1975.7100000000005 L 1001.2200000000003 1973.4700000000005 C 988.7937138471391 1966.6229686616587 976.4657915130231 1959.5989198898944 964.24 1952.4 Q 952.9600000000003 1945.8000000000006 941.5900000000003 1939.3300000000006 L 933.5600000000003 1934.7500000000007 L 931.8300000000003 1933.7600000000007 C 914.3300000000003 1923.7600000000007 896.9300000000003 1913.5600000000006 879.5300000000003 1903.3900000000008 C 868.1608296396187 1896.7408571083108 856.7707732965004 1890.1274910606817 845.3599999999993 1883.5499999999997 Q 832.9200000000003 1876.3800000000008 820.5200000000003 1869.1400000000008 C 812.694304010707 1864.5687129333646 804.8542653170392 1860.022023827002 796.9999999999994 1855.499999999999 C 788.6512868233335 1850.6932323763408 780.3179111848843 1845.8598745060408 771.9999999999991 1841 C 755.4599228036905 1831.3404128731474 738.8696982437691 1821.766949956513 722.2299999999982 1812.2799999999997 C 714.361085374153 1807.7846719613672 706.504389752336 1803.2679886488684 698.6600000000008 1798.7300000000016 L 683.76 1790.13 L 674.13 1784.5600000000002 L 672.51 1783.63 C 666.0499355034287 1779.8993821048225 659.579912397915 1776.1860355105189 653.0999999999997 1772.4899999999993 L 648.65 1769.95 C 638.3773755505019 1764.0967080201985 628.1372187794744 1758.1866175400446 617.93 1752.2199999999996 Q 607.05 1745.8500000000001 596.13 1739.56 L 594.49 1738.62 L 586.29 1733.8899999999999 L 571.62 1725.4399999999998 L 563.5 1720.7499999999998 L 560.25 1718.8799999999999 L 558.63 1717.9399999999998 L 527.75 1700.1299999999999 L 526.13 1699.1899999999998 L 522.87 1697.3099999999997 L 514.77 1692.6299999999997 L 500 1684.1099999999997 C 489.55797709890726 1678.067918946736 479.10127952645087 1672.05123449717 468.63000000000056 1666.0599999999986 L 467.36 1665.3399999999997 L 454.84000000000003 1658.1999999999996 C 438.55979559393637 1648.9360648910463 422.3460476871344 1639.5558250452937 406.19999999999857 1630.0599999999988 C 392.21193256587264 1621.8118458010813 378.16827848736733 1613.6583262482632 364.0699999999997 1605.5999999999995 Q 353.61000000000007 1599.6399999999994 343.19000000000005 1593.6299999999994 L 341.53000000000003 1592.6699999999994 Q 330.40000000000003 1586.2399999999993 319.31000000000006 1579.7499999999993 L 317.81000000000006 1578.8799999999994 Q 317.08000000000004 1578.4399999999994 316.31000000000006 1577.9999999999993 Q 304.76000000000005 1571.2499999999993 293.07000000000005 1564.6999999999994 C 285.6332200291983 1560.5109795204653 278.23294125591315 1556.2574859552803 270.87 1551.9399999999998 Q 259.63000000000005 1545.3399999999995 248.31000000000006 1538.8799999999994 Q 247.68000000000006 1538.4999999999993 247.02000000000007 1538.1399999999994 L 238 1533 C 230.58085786495036 1528.7826890985405 223.1708405532163 1524.5493458750136 215.76999999999907 1520.3000000000002 C 198.38 1510.32 198.38 1510.32 192 1505 Q 191.45 1503.5 191 1502 C 190.88 1500.6 190.88 1500.6 190.88 1499.1 L 190.87 1497.3799999999999 L 190.87 1454.9199999999998 C 190.86044536879206 1436.5199976978581 190.8671120380462 1418.1199905475703 190.8899999999968 1399.7199999999914 L 190.89000000000001 1307.2399999999998 L 190.91000000000003 1261.12 L 190.91000000000003 1125.9499999999998 L 190.95000000000002 954.2099999999998 L 190.95000000000002 815.83 L 190.98000000000002 631.8900000000001 L 190.98000000000002 630.1500000000001 L 191 544 L 194.84 540.6 L 195.93 539.64 C 197.74 538.04 199.52 536.54 201.58 535.27 Q 202.70000000000002 534.64 203.83 534.04 L 205.11 533.3199999999999 L 207.83 531.8299999999999 Q 210.05 530.6299999999999 212.25 529.4 L 217.02 526.77 Q 225.59 522 234.11 517.0699999999999 Q 248.60000000000002 508.75999999999993 263.19 500.62999999999994 C 270.27843953680343 496.70035973187186 277.3124394906449 492.673311417066 284.2899999999997 488.55000000000024 C 291.03000000000003 484.53999999999996 297.84000000000003 480.65 304.65000000000003 476.77 C 313.79802859205154 471.56791294850046 322.91485835582125 466.31115224010387 332.00000000000085 460.99999999999955 Q 346.23 452.69 360.54 444.55 L 364.97 442.02000000000004 L 365.85 441.52000000000004 Q 375.66 435.91 385.44 430.25000000000006 Q 396.94 423.59000000000003 408.5 417.00000000000006 C 425.21062898838437 407.4645834076381 441.8708606088934 397.841116283106 458.4800000000023 388.12999999999835 Q 466.88 383.22 475.33000000000004 378.3500000000001 L 476.94000000000005 377.43000000000006 L 480.18000000000006 375.56000000000006 Q 494.3400000000001 367.4100000000001 508.38000000000005 359.06000000000006 C 518.4780165250065 353.0596084098528 528.6351807717443 347.1593193659646 538.8500000000006 341.35999999999933 Q 550.46 334.76000000000005 562 328.00000000000006 Q 574.84 320.50000000000006 587.75 313.13000000000005 L 588.63 312.62000000000006 L 616.25 296.88000000000005 L 617.14 296.37000000000006 Q 630.34 288.8400000000001 643.46 281.15000000000003 C 651.6120697234226 276.385059401343 659.7922124096013 271.6683104604532 667.9999999999995 266.99999999999994 Q 682.58 258.7 697.05 250.23 Q 708.2099999999999 243.69 719.4399999999999 237.25 C 726.4447470246608 233.22932679121465 733.4248771576065 229.16591770236053 740.38 225.06000000000017 C 748.03 220.53 755.75 216.13 763.48 211.73 Q 776.34 204.41 789.13 196.92999999999998 C 797.3647845684512 192.11384167669817 805.6148260768405 187.32381757667525 813.8799999999995 182.55999999999963 L 815.51 181.61999999999998 L 828.65 174.04999999999998 L 840.13 167.43999999999997 L 841.76 166.48999999999998 C 848.9865817889446 162.3228496260417 856.1999512793221 158.13282862354535 863.3999999999999 153.92000000000118 C 873.4177053843733 148.07082307744432 883.467860782924 142.27740016444895 893.5499999999978 136.54000000000124 L 897.99 134 L 898.88 133.5 Q 908.45 128.02 918 122.5 Q 928 116.71 938 111 L 938.9 110.49 L 946.01 106.42999999999999 Q 959.6899999999999 98.63 973.26 90.67999999999999 Q 983.22 84.82 993.3199999999999 79.21 C 997.1538119561649 77.07473677865514 1000.9510278248656 74.87441854042653 1004.7099999999999 72.61000000000008 Q 1007.4899999999999 70.95 1010.2399999999999 69.27 C 1012.6288085889742 67.77954491159032 1015.1105461940826 66.44348159793836 1017.6699999999998 65.27000000000001 C 1019.423450338109 64.56949460125617 1021.2633671481289 64.10867448613239 1023.1399999999999 63.9" stroke-linecap="round" />
</g>
		<g transform="matrix(0.1424166814959731 0 0 0.1424166814959731 0.009045163852420046 -2.38029544785104)"  >
<path style="stroke: none; stroke-width: 1; stroke-dasharray: none; stroke-linecap: butt; stroke-dashoffset: 0; stroke-linejoin: miter; stroke-miterlimit: 4; fill: rgb(132,76,252); fill-rule: nonzero; opacity: 1;"  paint-order="stroke"  transform=" translate(-1023.9964015266747, -1006.9964000000003)" d="M 1020 391 C 1022.04 390.98 1024.02 390.98 1026.04 391.3 C 1027.62 391.62 1029.06 392.02000000000004 1030.58 392.6 C 1042.84 397.95000000000005 1054.34 405.28000000000003 1065.87 412 Q 1074.12 416.81 1082.3899999999999 421.57 L 1090.4899999999998 426.25 L 1101.9299999999998 432.84 L 1110.1299999999999 437.56 L 1111.76 438.51 Q 1122.6 444.75 1133.4 451.08 Q 1147.1000000000001 459.08 1160.8700000000001 466.94 L 1161.7700000000002 467.44 L 1163.5400000000002 468.46 L 1167.9800000000002 470.98999999999995 Q 1168.4200000000003 471.24999999999994 1168.8800000000003 471.48999999999995 Q 1182.5500000000004 479.31999999999994 1196.1900000000003 487.21999999999997 L 1207.3900000000003 493.67999999999995 C 1218.7241776807214 500.199182794854 1230.030943933438 506.7659072989375 1241.3099999999995 513.3799999999993 L 1242.2200000000005 513.91 L 1271.4700000000005 531.1 Q 1286.6500000000005 540 1301.9500000000005 548.69 Q 1313.6100000000006 555.33 1325.1900000000005 562.12 Q 1337.2600000000004 569.2 1349.5000000000005 576 Q 1361.7400000000005 582.8 1373.8100000000004 589.88 Q 1386.7300000000005 597.45 1399.7500000000005 604.88 L 1400.6300000000006 605.38 L 1408.6200000000006 609.93 L 1421.2600000000007 617.15 L 1422.1600000000008 617.66 L 1426.6600000000008 620.23 L 1435.4600000000007 625.27 L 1448.7300000000007 632.84 L 1454.9800000000007 636.4200000000001 L 1468.1700000000008 643.94 Q 1479.6000000000008 650.44 1491.0000000000007 657 L 1492.3500000000006 657.77 C 1505.1800000000005 665.16 1505.1800000000005 665.16 1509.5000000000007 668.74 C 1510.7019629169579 669.7881439340666 1511.869255987872 670.8753940515468 1513.0000000000007 672 L 1513.0000000000007 677 C 1510.8116259366639 679.1631664636681 1508.4724099502535 681.1682087377341 1506.0000000000007 683 C 1502.5500000000006 685.2 1498.9200000000008 687.12 1495.3000000000006 689.06 Q 1491.2300000000007 691.26 1487.1800000000007 693.5 L 1484.3900000000008 695.02 C 1478.562569482296 698.237183238304 1472.785212800132 701.544244882105 1467.0600000000009 704.9400000000002 L 1461.1600000000008 708.41 L 1459.6600000000008 709.29 C 1453.5000000000007 712.89 1447.3100000000009 716.41 1441.1200000000008 719.9399999999999 L 1434.010000000001 723.9999999999999 L 1433.1200000000008 724.4999999999999 Q 1423.5400000000009 729.9799999999999 1414.000000000001 735.4999999999999 C 1405.3070683934827 740.5238793742691 1396.6003689545714 745.5238981944711 1387.8800000000015 750.4999999999999 C 1369.7058423328776 760.8591732520094 1351.5855980487631 771.3126475115714 1333.5200000000004 781.8599999999996 Q 1322.540000000001 788.2699999999999 1311.5200000000011 794.6099999999999 C 1302.1806742440967 799.972740161569 1292.8705369920553 805.3861533006009 1283.5900000000017 810.8499999999997 C 1278.620000000001 813.7599999999999 1273.7400000000011 816.7499999999999 1269.0000000000011 820.05 C 1267.4799434461881 821.1086172383829 1265.8782454577806 822.044891636617 1264.2100000000012 822.8499999999999 C 1262.5000000000011 823.4399999999999 1262.5000000000011 823.4399999999999 1260.790000000001 823.8199999999999 C 1259.130000000001 823.9899999999999 1257.590000000001 824.04 1255.9400000000012 823.92 C 1253.93972824377 823.7627458050405 1251.9541235530846 823.455211071803 1250.0000000000011 823 C 1247.7335461806447 822.1112916555666 1245.5486523033483 821.0272095479953 1243.4700000000012 819.76 L 1241.2500000000011 818.4399999999999 L 1238.850000000001 817.06 Q 1231.610000000001 812.8499999999999 1224.5100000000011 808.38 C 1218.630000000001 804.72 1212.630000000001 801.28 1206.630000000001 797.81 L 1204.920000000001 796.8299999999999 Q 1192.470000000001 789.68 1179.960000000001 782.6399999999999 Q 1167.510000000001 775.5999999999999 1155.190000000001 768.3699999999999 C 1145.1366000937323 762.4842075654615 1135.0564959413919 756.6441472232327 1124.9500000000014 750.8500000000004 L 1113.3200000000008 744.1499999999999 L 1106.6900000000007 740.3099999999998 L 1105.0400000000006 739.3599999999998 Q 1096.7800000000007 734.5799999999998 1088.4700000000007 729.8499999999998 L 1087.1500000000008 729.0899999999998 L 1084.5400000000009 727.6099999999998 Q 1072.2800000000009 720.6099999999998 1060.1600000000008 713.4099999999997 C 1053.4563142121776 709.4140533242507 1046.705847039654 705.4971155821689 1039.9100000000008 701.6599999999996 Q 1037.1100000000008 700.0899999999997 1034.4000000000008 698.4099999999997 C 1032.361876792153 697.1030106541165 1030.2215957049107 695.9626421373202 1028.0000000000007 694.9999999999998 L 1026.3200000000006 694.5199999999998 L 1024.6900000000005 694.3799999999998 C 1023.4000000000005 694.5099999999998 1022.2500000000005 694.6799999999997 1021.0000000000005 694.9999999999998 C 1015.877271300431 696.7401474118639 1010.9125558666788 698.9147195358119 1006.1600000000004 701.4999999999998 Q 1001.9200000000004 703.9099999999997 997.7500000000005 706.4399999999998 L 994.6300000000005 708.2799999999999 L 988.1900000000004 712.1099999999999 Q 981.3600000000004 716.1499999999999 974.4900000000004 720.1299999999999 L 966.9900000000004 724.5099999999999 L 965.4900000000004 725.3799999999999 L 956.6000000000004 730.5799999999999 C 944.8433160841315 737.4623265110115 933.0464473216006 744.275776567698 921.2100000000005 751.02 Q 909.06 757.93 897 765 Q 884.1 772.54 871.13 779.94 L 864 784 L 863.12 784.5 C 844.1482058041495 795.3309342601939 825.2543859242469 806.2978833436234 806.4399999999988 817.4000000000005 C 804.2112531227323 818.663729812386 802.0171165026691 819.9875478035184 799.8599999999999 821.37 Q 798.23 822.42 796.53 823.37 L 795 824 C 793.27 824.34 793.27 824.34 791.49 824.44 C 789.73 824.32 789.73 824.32 788 824 C 786.2875079705672 823.4397185470691 784.6222632288711 822.7441946388908 783.02 821.92 L 781.1899999999999 820.9399999999999 L 779.16 819.89 C 769.54 814.86 760.2099999999999 809.29 750.8299999999999 803.81 Q 743.8199999999999 799.7299999999999 736.7599999999999 795.7099999999999 C 728.0445137338033 790.7470487737312 719.3444717231964 785.757024677992 710.66 780.7399999999997 L 694.0299999999999 771.1199999999999 L 685.8099999999998 766.3699999999999 L 684.1799999999998 765.4299999999998 C 676.1292263726789 760.7846851136909 668.0524323808164 756.1846125966581 659.9500000000005 751.6300000000001 Q 648.3299999999998 745.0799999999999 636.8299999999998 738.3199999999999 Q 628.0099999999998 733.14 619.1399999999998 728.0899999999999 L 618.2599999999998 727.5899999999999 L 614.7299999999998 725.5799999999999 C 604.3551361937131 719.6970891931571 594.0608488365324 713.6731975952214 583.8499999999997 707.5099999999998 C 577.665698706314 703.7587830435017 571.4386233884584 700.0785415280241 565.1699999999998 696.4700000000001 L 555.9399999999998 691.18 C 550.8599508223136 688.3001018872891 545.8356907054837 685.3228860383646 540.8699999999998 682.25 L 539.4699999999998 681.4 C 538.2719182480829 680.6616008465695 537.1136407695765 679.8604867403978 536 679 C 535.25 678.13 535.25 678.13 534.7 677.3 L 534 676 L 535 672 C 537.1927970220303 669.8416427433025 539.531666225306 667.8368977119233 542 666 C 545.85 663.5 549.9 661.3 553.9 659.07 L 558.55 656.45 L 564.3199999999999 653.2 Q 572.9899999999999 648.3100000000001 581.5799999999999 643.3000000000001 C 590.4707561843256 638.1454892312158 599.404400994903 633.0653121075893 608.3799999999984 628.0600000000012 Q 621.6999999999999 620.6300000000001 634.9399999999998 613.0600000000001 L 635.8199999999998 612.5600000000001 C 647.2877383784819 605.9950674893489 658.7410991267008 599.405051715417 670.1799999999968 592.7900000000014 L 689.6299999999999 581.5600000000001 L 694.5099999999999 578.7500000000001 L 696.1299999999999 577.8100000000001 L 705.8299999999999 572.21 L 713.8699999999999 567.5600000000001 L 715.4899999999999 566.6300000000001 C 721.9499637045834 562.8992070329463 728.4199872807109 559.1858601685442 734.8999999999988 555.4900000000016 L 739.3499999999999 552.9500000000002 L 740.2299999999999 552.4500000000002 L 742.0099999999999 551.4300000000002 C 750.3673853215097 546.66758279547 758.6975209995464 541.857504450769 766.999999999999 537.0000000000003 Q 781.23 528.69 795.54 520.54 L 799.98 518.01 L 800.87 517.51 C 805.6963359933218 514.7568477469061 810.513032095433 511.9868308189783 815.32 509.19999999999914 L 818.57 507.31 Q 832.0400000000001 499.51 845.62 491.94 C 855.7904320250163 486.27033066593685 865.8911864466934 480.47656459832126 875.9199999999998 474.5599999999999 L 877.42 473.68 C 882.6553034419383 470.60894910480374 887.9087286988625 467.5688959104418 893.1799999999993 464.5600000000008 C 903.299038444554 458.73838322617354 913.3726760450628 452.8382050154191 923.4000000000009 446.85999999999973 Q 935.55 439.62 947.9 432.72 C 955.74 428.32000000000005 963.47 423.79 971.1899999999999 419.19000000000005 Q 985.63 410.57000000000005 1000.2499999999999 402.25000000000006 L 1001.1499999999999 401.7300000000001 L 1010.2299999999999 396.57000000000005 Q 1015.1299999999999 393.80000000000007 1019.9999999999999 391.00000000000006 M 476 773 L 479.85 773.44 L 480.95000000000005 773.5600000000001 Q 482.47 773.74 484.00000000000006 774.0000000000001 C 485.40000000000003 774.4600000000002 485.40000000000003 774.4600000000002 486.40000000000003 774.9200000000001 Q 487.40000000000003 775.46 488.38000000000005 776.0500000000001 L 489.51000000000005 776.6700000000001 Q 491.32000000000005 777.69 493.13000000000005 778.7500000000001 L 495.75000000000006 780.2400000000001 Q 499.88000000000005 782.5900000000001 504.00000000000006 785.0000000000001 L 505.31000000000006 785.7700000000001 Q 513.3900000000001 790.4900000000001 521.4100000000001 795.2700000000001 Q 530.8700000000001 800.8900000000001 540.3800000000001 806.44 L 542.2400000000001 807.5300000000001 L 558.2900000000001 816.9300000000001 C 569.4654300085275 823.4852694035818 580.6789536191814 829.9753795313892 591.93 836.4000000000003 C 605.3610962864194 844.0576613616068 618.7545903982963 851.7810874087002 632.1099999999976 859.5699999999993 C 643.1237599228958 866.0373995104759 654.2077528980276 872.3844439088674 665.3599999999998 878.6100000000002 Q 678.61 886.02 691.77 893.58 Q 700.65 898.69 709.6 903.69 L 712.75 905.45 Q 715.65 907.07 718.55 908.6600000000001 C 723.0902430047734 911.1213134842634 727.4480915513511 913.9051231769777 731.5899999999999 916.9900000000001 Q 732.8299999999999 917.9600000000002 733.9999999999999 919.0000000000001 L 734.5599999999998 919.8300000000002 L 734.9999999999999 921.0000000000001 C 735.3017687343943 922.7159746058782 735.5286504250805 924.4442792496349 735.6799999999998 926.1800000000001 C 736.1399999999999 930.8900000000001 736.1799999999998 935.6 736.1999999999998 940.32 L 736.2299999999998 943.36 L 736.3599999999998 958.8100000000001 C 736.462283577347 969.7732043176702 736.5489503319404 980.7365487739572 736.6199999999982 991.7000000000012 C 736.9199999999997 1029.7 737.0599999999998 1067.7 736.9999999999998 1192 L 738.8699999999998 1192.6 Q 740.0899999999998 1193.02 741.3199999999998 1193.4099999999999 L 742.5499999999998 1193.81 C 744.7499999999999 1194.54 746.8299999999998 1195.31 748.8899999999999 1196.37 Q 750.1499999999999 1197.07 751.3899999999999 1197.79 L 752.8199999999998 1198.59 L 757.3699999999998 1201.1899999999998 L 760.6699999999997 1203.0499999999997 C 769.725162443364 1208.2377310339325 778.7289337663544 1213.5146543972403 787.6799999999993 1218.8799999999994 Q 800.0199999999998 1226.2199999999996 812.4999999999998 1233.3099999999997 L 813.3999999999997 1233.8299999999997 L 821.2499999999998 1238.2899999999997 Q 828.4499999999998 1242.3999999999996 835.6299999999998 1246.5599999999997 L 837.8599999999998 1247.8599999999997 L 838.9899999999998 1248.5099999999998 L 841.2899999999997 1249.8499999999997 L 857.5599999999997 1259.2499999999998 L 860.8999999999997 1261.1699999999998 L 867.6399999999998 1265.07 L 879.1399999999998 1271.7 L 901.8999999999997 1284.8400000000001 L 911.6799999999997 1290.5000000000002 Q 923.0799999999997 1297.0700000000002 934.5799999999997 1303.4800000000002 C 949.4799999999997 1311.7800000000002 949.4799999999997 1311.7800000000002 955.8599999999997 1315.5600000000002 L 957.7199999999997 1316.66 L 961.5699999999997 1318.94 C 962.8262643913952 1319.8861600356454 964.0034799044254 1320.9329454208116 965.0899999999997 1322.0700000000002 L 966.1699999999997 1323.17 L 966.9999999999998 1324 C 967.3799999999998 1365.73 967.7299999999998 1407.46 968.1199999999998 1539.3899999999999 L 968.1299999999998 1556.4499999999998 L 968.1299999999998 1612.9099999999999 C 968.1532972025011 1614.766515380059 968.032938119989 1616.6220512354537 967.7699999999998 1618.4599999999998 C 967.5358580519014 1619.6447870996844 967.2791447199418 1620.8250016388236 966.9999999999998 1621.9999999999998 C 965.8599999999998 1622.2099999999998 965.8599999999998 1622.2099999999998 964.1899999999998 1622.3799999999999 C 962.2899999999998 1622.36 962.2899999999998 1622.36 961.1799999999998 1622.2499999999998 L 960 1622 C 958.2972652680195 1621.2595107571863 956.6467992352825 1620.4042085215979 955.06 1619.44 L 953.6199999999999 1618.64 L 949 1616 L 945.9 1614.25 L 936.8199999999999 1609.07 L 934.1199999999999 1607.52 C 922.6728207392965 1600.967433419577 911.239462021314 1594.3907521511865 899.8200000000024 1587.7900000000013 L 875.4999999999999 1573.75 L 872.2499999999999 1571.88 L 865.7499999999999 1568.1200000000001 L 864.1299999999999 1567.19 L 860.8799999999999 1565.31 L 838.1799999999998 1552.21 L 830.1299999999999 1547.56 L 828.5099999999999 1546.6299999999999 C 822.0500362954164 1542.899207032946 815.580012719288 1539.1858601685426 809.1 1535.49 L 804.6499999999999 1532.9499999999998 C 794.3773755505018 1527.0967080201983 784.1372187794743 1521.1866175400444 773.9299999999998 1515.2199999999993 Q 763.0499999999998 1508.85 752.1299999999999 1502.5599999999997 L 750.4899999999999 1501.6199999999997 L 742.2899999999998 1496.8899999999996 L 727.6199999999999 1488.4399999999996 L 719.4999999999999 1483.7499999999995 L 716.2499999999999 1481.8799999999997 L 714.6299999999999 1480.9399999999996 L 709.7499999999999 1478.1199999999997 L 708.1299999999999 1477.1899999999996 L 704.8799999999999 1475.3099999999995 L 682.1799999999998 1462.2099999999996 L 674.1299999999999 1457.5599999999995 L 672.5099999999999 1456.6299999999994 C 666.0500362954164 1452.8992070329455 659.580012719288 1449.1858601685421 653.1 1445.4899999999996 L 648.6499999999999 1442.9499999999994 L 647.7699999999999 1442.4499999999994 L 645.9899999999999 1441.4299999999994 C 637.1440380792842 1436.3841797783223 628.3272250386811 1431.2874284970062 619.5399999999992 1426.1399999999994 Q 607.31 1419 595 1412 Q 581.9 1404.54 568.88 1396.94 C 551.9773281410186 1387.0510199807293 535.0170388255302 1377.2608529760923 517.9999999999981 1367.5699999999983 L 515.46 1366.1200000000001 L 514.1700000000001 1365.38 Q 510.00000000000006 1362.99 505.81000000000006 1360.63 C 502.0131380275199 1358.492118773723 498.22311866978555 1356.342107792422 494.44000000000005 1354.1799999999996 C 485.00000000000006 1348.8700000000001 485.00000000000006 1348.8700000000001 481.69000000000005 1346.22 C 480.07887978946724 1344.867367123438 478.51462690998073 1343.4598730612988 477 1342 C 476.2536498893163 1337.8077262311267 475.8755413913801 1333.5581882454726 475.87 1329.3 L 475.87 1305.85 L 475.89 1274.4099999999999 L 475.89 1268.12 C 475.8794723749222 1242.9500000726302 475.88280570877026 1217.7799962560518 475.9000000000093 1192.609999999973 L 475.9 1153.05 L 475.92999999999995 1094.36 L 475.92999999999995 1072.7199999999998 L 475.93999999999994 1013.9999999999998 L 475.93999999999994 984.9199999999997 L 475.9599999999999 934.6399999999998 L 475.9599999999999 932.2399999999998 L 475.9799999999999 824.4799999999998 L 475.9799999999999 823.4599999999998 z M 1568 772 C 1569.7 771.9 1569.7 771.9 1571 772 L 1571.5 772.76 L 1572 774 C 1572.1 775.31 1572.13 776.57 1572.12 777.88 L 1572.12 840.78 C 1572.1271986253587 866.1600017483727 1572.1205319577077 891.5400055357627 1572.1000000000104 916.9200000000316 L 1572.1 956.79 L 1572.08 1015.9699999999999 L 1572.07 1036.51 L 1572.07 1037.8 L 1572.06 1097 L 1572.06 1126.32 L 1572.04 1176.99 L 1572.04 1179.41 L 1572.02 1288.0700000000002 L 1572.02 1289.1000000000001 L 1572 1340.0000000000002 L 1570.09 1342.4300000000003 L 1569.01 1343.7900000000002 L 1568 1345.0000000000002 C 1566.6 1346.1600000000003 1566.6 1346.1600000000003 1565.28 1346.9300000000003 L 1563.69 1347.8800000000003 L 1561.94 1348.8800000000003 L 1560.02 1350.0000000000002 C 1552.85 1354.1800000000003 1545.56 1358.1500000000003 1538.3 1362.1600000000003 C 1527.62 1368.0600000000004 1517.07 1374.1600000000003 1506.54 1380.3400000000004 Q 1497.79 1385.4600000000003 1489 1390.5000000000005 Q 1476.48 1397.7000000000005 1464 1405.0000000000005 C 1449.038136199906 1413.7473178030918 1434.0312700566756 1422.417433049325 1418.979999999999 1431.0100000000007 L 1418.09 1431.5100000000004 L 1410.99 1435.5700000000004 C 1402.63261467849 1440.3324172045304 1394.3024790004533 1445.1424955492316 1386.0000000000007 1450.0000000000002 C 1375.0553319388796 1456.3993216760618 1364.06842457931 1462.72612694562 1353.0400000000002 1468.98 L 1352.1499999999999 1469.48 Q 1342.34 1475.09 1332.56 1480.75 Q 1321.06 1487.41 1309.5 1494 Q 1297.83 1500.66 1286.19 1507.38 L 1284.53 1508.3300000000002 Q 1275.69 1513.42 1266.8899999999999 1518.5700000000002 L 1260.9399999999998 1522.0700000000002 L 1259.4599999999998 1522.93 C 1251.1799999999998 1527.77 1242.8299999999997 1532.48 1234.4599999999998 1537.15 C 1228.1538666364388 1540.6360158631705 1221.8965930886316 1544.2096958009697 1215.6899999999996 1547.8700000000003 C 1208.6599999999999 1552.0500000000002 1201.57 1556.1200000000001 1194.4699999999998 1560.17 L 1186.2699999999998 1564.8500000000001 L 1185.3499999999997 1565.3700000000001 C 1169.9134963363513 1574.1835602082836 1154.526587261028 1583.083700422996 1139.189999999998 1592.0700000000008 Q 1128.1899999999996 1598.4900000000002 1117.0999999999997 1604.7900000000002 C 1106.675174349665 1610.7601228573662 1096.3080279046035 1616.830403782272 1085.999999999999 1623.0000000000007 L 1081 1623 L 1080 1622 L 1080 1326 C 1085.61 1320.39 1085.61 1320.39 1088.46 1318.38 L 1089.66 1317.5600000000002 L 1090.96 1316.66 C 1095.213120041457 1313.8327557475627 1099.5944471422329 1311.2032921105395 1104.0900000000001 1308.78 L 1111.6100000000001 1304.58 L 1113.19 1303.6999999999998 C 1119.0876159082277 1300.3826253858058 1124.9611035969676 1297.0225370825995 1130.8100000000006 1293.6199999999997 L 1134.09 1291.7199999999998 L 1140.6999999999998 1287.9099999999999 C 1152.1002151894288 1281.3097225182678 1163.5102277760675 1274.7263819227035 1174.929999999994 1268.1600000000017 L 1181.4899999999998 1264.3799999999999 L 1184.7599999999998 1262.4899999999998 Q 1193.4099999999999 1257.5199999999998 1202.0199999999998 1252.4699999999998 C 1212.871142329835 1246.0935946658526 1223.805415281112 1239.8597256357036 1234.8199999999988 1233.77 C 1243.1342742472627 1229.206357102203 1251.3688437054875 1224.498983792481 1259.52 1219.6499999999999 L 1260.5399999999997 1219.04 Q 1268.6799999999998 1214.26 1276.8799999999997 1209.56 L 1280.2299999999996 1207.6299999999999 L 1305.6599999999996 1192.9799999999998 Q 1306.1599999999996 1192.6799999999998 1306.6599999999996 1192.4099999999999 L 1308.9999999999995 1190.9999999999998 L 1309.9999999999995 1189.9999999999998 L 1310.0099999999995 1188.3299999999997 Q 1310.2299999999996 1151.8399999999997 1310.4899999999996 1115.3599999999997 L 1310.4899999999996 1114.2399999999998 L 1310.6599999999996 1090.2299999999998 L 1310.7399999999996 1078.4499999999998 L 1310.7499999999995 1077.2599999999998 Q 1310.8899999999996 1058.2599999999998 1310.9999999999995 1039.2899999999997 Q 1311.1199999999994 1019.7699999999998 1311.2699999999995 1000.2499999999998 Q 1311.2699999999995 997.4899999999998 1311.3099999999995 994.7399999999998 L 1311.3099999999995 993.6399999999998 Q 1311.3799999999994 984.9099999999997 1311.4199999999994 976.1799999999997 C 1311.4667051068411 967.1565576167693 1311.530038547712 958.1332089622625 1311.61 949.1100000000013 C 1311.621847431177 945.1565805936374 1311.6485142851957 941.2032194853933 1311.6899999999996 937.2499999999999 C 1311.6999999999994 929.8199999999997 1311.6999999999994 929.8199999999997 1312.1799999999994 926.8999999999996 C 1312.5125936428724 925.3828312673342 1312.9129951180103 923.8813257355674 1313.3799999999994 922.3999999999996 L 1313.9999999999993 920.9999999999997 C 1314.9599999999994 919.6199999999997 1314.9599999999994 919.6199999999997 1315.9599999999994 918.4599999999997 C 1317.605817348426 917.0149382671497 1319.3647794271865 915.704076794005 1321.2199999999993 914.5399999999997 C 1323.9799999999993 912.8399999999997 1326.7999999999993 911.2299999999998 1329.6199999999994 909.6299999999998 L 1332.7999999999995 907.7999999999997 C 1341.9499999999996 902.5399999999997 1351.1799999999996 897.4299999999997 1360.4199999999994 892.3299999999997 C 1367.1793340890686 888.601316150314 1373.8801477347638 884.7675172982994 1380.519999999999 880.8299999999998 L 1382.5399999999993 879.6299999999997 L 1383.5699999999993 879.0299999999996 C 1388.8299999999992 875.8999999999996 1394.1399999999992 872.8699999999997 1399.4399999999991 869.8099999999996 L 1402.789999999999 867.8799999999997 L 1411.299999999999 862.9799999999997 L 1426.129999999999 854.4399999999997 L 1427.759999999999 853.4899999999997 Q 1440.069999999999 846.3899999999996 1452.349999999999 839.1999999999997 Q 1464.179999999999 832.2999999999997 1476.109999999999 825.5099999999996 C 1488.5699587909248 818.4017602423344 1500.9868521368546 811.2182957697231 1513.3599999999994 803.9599999999999 L 1518.589999999999 800.8999999999997 Q 1533.989999999999 791.8999999999997 1549.369999999999 782.8399999999998 L 1550.569999999999 782.1399999999998 L 1564.759999999999 773.7399999999998 L 1566.4299999999992 772.7299999999998 z" stroke-linecap="round" />
</g>
</g>
</g>
</svg>