<svg xmlns="http://www.w3.org/2000/svg" viewBox="0 0 128 128">
  <path d="M64 8C64 8 38 34 38 72c0 10 2 18 5 25l-15 9c-3 2-4 5-3 8l4 10c1 3 4 4 7 3l16-7c6 6 13 10 12 10s6-4 12-10l16 7c3 1 6 0 7-3l4-10c1-3 0-6-3-8l-15-9c3-7 5-15 5-25C90 34 64 8 64 8z" fill="#5B8DEF"/>
  <ellipse cx="64" cy="62" rx="10" ry="12" fill="#E8F0FE"/>
  <path d="M38 72c-4 4-12 8-16 10-2 1-3 3-2 5l2 4c1 2 3 2 5 1l14-10C39 78 38 75 38 72z" fill="#EF5B5B"/>
  <path d="M90 72c4 4 12 8 16 10 2 1 3 3 2 5l-2 4c-1 2-3 2-5 1L87 82c2-3 3-6 3-10z" fill="#EF5B5B"/>
  <path d="M54 108l-2 12c0 2 1 4 3 4h2c2 0 4-2 4-4l-1-12h-6zM68 108l1 12c0 2-1 4-3 4h-2c-2 0-4-2-4-4l1-12h7z" fill="#F7A641"/>
</svg>
